<svg version="1" xmlns="http://www.w3.org/2000/svg" width="682.667" height="682.667" viewBox="0 0 512.000000 512.000000"><path d="M363.9 76.2c-48.7 71.6-48.4 71.3-51.2 71.6-3.4.4-3.7-.2-14-23.3-10.2-22.8-31.2-68.8-32.5-71.1-.6-1.1-2.1 2.7-5.1 13.8-3.9 13.9-8.3 29.7-24.7 87.8-3.1 10.7-7.6 26.7-10 35.5-2.5 8.8-5.6 19.9-7 24.6l-2.5 8.6 18.1 42.4c10 23.3 21.8 51.1 26.2 61.6 4.5 10.6 8.4 19 8.7 18.7.3-.3 16.2-26 35.2-57.2 32.5-53.4 34.7-56.7 37.4-56.7 6.2 0 7-3.7-18.5 84.5-2.8 9.6-8.9 30.8-13.6 47-4.7 16.2-12 41.2-16.1 55.5-4.1 14.3-9 31.1-10.9 37.3-1.9 6.3-3.2 11.8-2.8 12.3.3.5 20.2.9 47.8.9h47.2l1.4-5.3c1.2-4.9 21.5-79.8 29.9-110.7 2.2-8 11.2-41.3 20.1-74 20.1-74.1 26.5-97.8 37.9-139.5 4.9-18.2 12.4-45.8 16.6-61.5 4.2-15.7 8.1-29.8 8.6-31.4.5-1.6.8-3 .7-3.1-.2-.1-23.7-.5-52.4-.8l-52-.5-22.5 33zm115.7-23c.4.4-6.6 7.8-15.5 16.4-16.3 15.8-19.2 19.6-21.9 28.9-2.3 7.7-7.1 25.1-10.6 38-5.6 20.8-14.6 53.7-15.6 57-.6 1.6-4.2 14.7-8 29-3.9 14.3-7.5 27.6-8 29.5-.5 1.9-1.7 6.2-2.6 9.5-.9 3.3-2.2 8-2.9 10.5-.7 2.5-2.6 9.7-4.3 16-1.8 6.3-5.9 21.2-9.1 33-8.6 30.7-18.3 66-23.1 84-4.5 16.6-6.4 21.3-10.2 24.6-2.7 2.6-8.7 5.6-14.3 7.4-7 2.2-23.8 9.1-30 12.4-3.3 1.7-6.4 3.3-6.9 3.5-2.1.9-.4-5.5 22.4-83.9 3.3-11.3 11.6-39.9 18.4-63.5 6.8-23.7 14.5-50 17-58.5 10.7-36.6 26.6-93.3 26.3-93.6-.2-.3-5 7.1-10.7 16.3-17.3 28.1-31.1 49.5-33.4 51.9-1.6 1.8-3.4 2.3-8 2.5-6.8.3-15.2 3.4-23.2 8.5-6.6 4.2-15.6 14.8-23.6 27.7-8.7 14-16.5 21.8-23.3 23-3.5.6-3.1 1.2-13.5-22.8-2.8-6.6-6.5-14.7-8-18.1-7.4-15.6-10-21.8-10-23.6 0-1.1 2.2-9.5 4.9-18.7 9.3-31.2 23.9-80.6 29.7-100.8 3.3-11.2 6.4-20.3 7-20.3.6 0 1.8 1.7 2.7 3.7 4 9.8 15.7 35.4 22.6 49.8 4.3 8.8 9.7 20.4 12.2 25.8 2.4 5.3 4.7 9.6 5.1 9.5.6-.3 17.4-24.8 61.1-89.1L390.5 52l44.2.2c24.3.2 44.5.6 44.9 1zM215.3 44.8l-25.2.2-26.3 37.2c-14.5 20.4-32.9 46.4-40.9 57.7l-14.6 20.6 48.5.3c26.7.1 48.6.1 48.8-.1.3-.3 22.1-71.1 31.4-102 2.3-7.6 4-13.9 3.8-14-.2-.1-11.6-.1-25.5.1zm12.1 8.1c1.7.6 1.2 1.5-4.3 7.6-12.5 13.8-19.8 24.7-28.6 42.8-4.6 9.6-9.6 18.8-11 20.5-3.7 4.5-10.6 8.4-24.5 14.2-6.9 2.9-16.7 7.2-21.9 9.6-5.1 2.4-9.7 4.4-10.2 4.4-1.2 0 1.5-5.3 5.9-11.5 2-2.8 14-19.9 26.7-38 12.7-18.2 24.9-35.5 27-38.5 2.1-3 4.9-7 6.2-8.8l2.4-3.2 15.2.1c8.4 0 16.1.4 17.1.8zM96.9 191.2c-.6 2.4-4.9 18.2-9.6 35.3-4.6 17-11.3 41.6-14.8 54.5C55 345.5 26.7 449.3 24.9 455.5c-1.1 3.8-2.3 7.8-2.5 8.7-.5 1.7 2.3 1.8 48.9 1.8h49.4l5.3-19.3c7.7-27.6 26-93 41.5-148.2 23.2-82.7 30.5-109 30.5-110.2 0-1-10.1-1.3-50-1.3H98.1l-1.2 4.2z"/></svg>